<svg width="25.447" height="19.931" viewBox="0 0 25.447 19.931" xmlns="http://www.w3.org/2000/svg" xmlns:xlink="http://www.w3.org/1999/xlink" overflow="hidden"><path d="M10.82 3.982 12.08 2.969C12.6499 2.53983 13.4351 2.53983 14.005 2.969L25.046 11.837C25.4732 12.1397 25.5741 12.7314 25.2714 13.1586 25.2095 13.2459 25.1333 13.3221 25.046 13.384L14.006 22.257C13.4361 22.6862 12.6509 22.6862 12.081 22.257L10.82 21.244C10.3923 20.9364 10.2949 20.3402 10.6026 19.9125 10.6683 19.8211 10.7497 19.742 10.843 19.679L17.687 14.439 1.363 14.439C0.685841 14.5064 0.0795385 14.0188 3.5286e-08 13.343L0 11.883C0.077538 11.2056 0.684453 10.7157 1.363 10.783L17.686 10.783 10.842 5.543C10.4068 5.252 10.2898 4.66326 10.5808 4.22801 10.6449 4.13214 10.726 4.04877 10.82 3.982Z" id="Icon_awesome-arrow-right" fill="#FFFFFF" transform="matrix(1 0 0 1 0 -2.647)"/></svg>