<svg width="24.92" height="15.152" viewBox="0 0 24.92 15.152" xmlns="http://www.w3.org/2000/svg" xmlns:xlink="http://www.w3.org/1999/xlink" overflow="hidden"><path d="M24.769 11.5C22.2267 7.11958 17.5244 4.44548 12.46 4.5 7.39567 4.44591 2.69365 7.11989 0.150999 11.5-0.0497645 11.8578-0.0497645 12.2942 0.150999 12.652 2.69334 17.0324 7.39556 19.7065 12.46 19.652 17.5243 19.7061 22.2263 17.0321 24.769 12.652 24.9698 12.2942 24.9698 11.8578 24.769 11.5ZM12.46 17.758C9.17317 17.9022 6.38817 15.3622 6.23 12.076 6.38817 8.78981 9.17317 6.24978 12.46 6.394 15.7468 6.24978 18.5318 8.78981 18.69 12.076 18.5334 15.3629 15.7474 17.9039 12.46 17.758ZM12.46 8.288C12.0902 8.29275 11.7224 8.34313 11.365 8.438 11.9735 9.1753 11.8849 10.263 11.165 10.892 10.4127 11.554 9.31024 11.6302 8.474 11.078 8.0233 12.679 8.72061 14.3813 10.165 15.206 11.6635 16.1086 13.5508 16.0543 14.995 15.067 16.3806 14.1541 16.9596 12.4103 16.395 10.85 15.7427 9.26167 14.1764 8.24192 12.46 8.288Z" id="Icon_awesome-eye" fill="#644747" transform="matrix(1 0 0 1 0 -4.5)"/></svg>