<svg width="27.689" height="20.202" viewBox="0 0 27.689 20.202" xmlns="http://www.w3.org/2000/svg" xmlns:xlink="http://www.w3.org/1999/xlink" overflow="hidden"><path d="M13.844 15.783C10.7328 15.9014 8.04789 13.6205 7.662 10.531L3.124 7.331C2.52004 8.00554 1.98753 8.74079 1.535 9.525 1.33424 9.88276 1.33424 10.3192 1.535 10.677 4.07734 15.0574 8.77956 17.7315 13.844 17.677 14.9795 17.6703 16.1105 17.5317 17.214 17.264L14.969 15.68C14.5974 15.7444 14.2211 15.7778 13.844 15.78ZM27.421 18.075 22.638 14.7C24.0691 13.6083 25.2647 12.2385 26.153 10.673 26.3538 10.3152 26.3538 9.87876 26.153 9.521 23.6107 5.14058 18.9084 2.46648 13.844 2.521 11.6331 2.52104 9.45213 3.03164 7.471 4.013L1.967 0.133C1.66249-0.0779304 1.2488-0.0304434 1 0.244L0.151 1.244C-0.0635244 1.49656-0.0326914 1.8752 0.219867 2.08973 0.236818 2.10413 0.254556 2.11757 0.273 2.13L25.722 20.069C26.0275 20.2829 26.4446 20.2353 26.694 19.958L27.544 18.958C27.7585 18.7054 27.7277 18.3268 27.4751 18.1123 27.4582 18.0979 27.4404 18.0844 27.422 18.072ZM19.473 12.475 17.773 11.275C17.9166 10.8996 17.9935 10.5019 18 10.1 18.0012 8.88409 17.3939 7.74824 16.382 7.074 15.3186 6.35173 13.9934 6.12831 12.752 6.462 13.0088 6.77628 13.15 7.16915 13.152 7.575 13.1454 7.70886 13.1229 7.84145 13.085 7.97L9.9 5.726C12.4184 3.85835 15.9002 4.00721 18.25 6.083 19.3983 7.10408 20.061 8.56341 20.074 10.1 20.0675 10.9274 19.8617 11.741 19.474 12.472Z" id="Icon_awesome-eye-slash" fill="#8A8989"/></svg>