<svg width="49.315" height="38.65" viewBox="0 0 49.315 38.65" xmlns="http://www.w3.org/2000/svg" xmlns:xlink="http://www.w3.org/1999/xlink" overflow="hidden"><path d="M44.031 2.25 5.284 2.25C2.366 2.25 0 4.1 0 6.391L0 36.759C0 39.046 2.366 40.9 5.284 40.9L20.392 40.9 20.392 27.76 13.457 27.76 13.457 21.575 20.392 21.575 20.392 16.861C20.392 11.499 24.465 8.537 30.703 8.537 32.7467 8.55902 34.7874 8.69859 36.815 8.955L36.815 14.218 33.372 14.218C29.98 14.218 28.923 15.868 28.923 17.559L28.923 21.575 36.494 21.575 35.283 27.76 28.923 27.76 28.923 40.9 44.031 40.9C46.949 40.9 49.315 39.046 49.315 36.759L49.315 6.391C49.315 4.104 46.949 2.25 44.031 2.25Z" id="Icon_awesome-facebook-square" fill="#AA3053" transform="matrix(1 0 0 1 0 -2.25)"/></svg>